<?xml version="1.0" encoding="iso-8859-1"?>
<!-- Generator: Adobe Illustrator 19.0.0, SVG Export Plug-In . SVG Version: 6.00 Build 0)  -->
<svg version="1.1" id="Layer_1" xmlns="http://www.w3.org/2000/svg" xmlns:xlink="http://www.w3.org/1999/xlink" x="0px" y="0px"
	 viewBox="0 0 512 512" style="enable-background:new 0 0 512 512;" xml:space="preserve">
<path style="fill:#754C24;" d="M411.466,199.498c0,0-9.282-16.123-9.282-30.608c0-10.497,4.52-22.076,4.52-22.076
	c1.285-3.294,0.306-8.035-2.178-10.539l-89.027-89.727c-2.484-2.504-6.547-2.504-9.029,0L171.715,182.364
	c0.056,0.055,0.117,0.102,0.173,0.158l132.407,133.451c0.055,0.056,0.102,0.118,0.156,0.174l105.701-106.533
	C412.637,207.111,413.227,202.559,411.466,199.498z"/>
<path style="opacity:0.1;enable-background:new    ;" d="M171.889,182.523l16.159,16.287L327.31,58.452l-11.811-11.904
	c-2.484-2.504-6.547-2.504-9.029,0L171.715,182.364C171.772,182.419,171.832,182.466,171.889,182.523z"/>
<path style="fill:#AADDC0;" d="M162.031,477.56c-4.967,5.005-13.092,5.005-18.059,0L11.563,344.109
	c-4.967-5.005-4.967-13.196,0-18.202l142.264-143.385c4.967-5.005,13.094-5.005,18.061,0l132.407,133.451
	c4.967,5.006,4.967,13.197,0,18.203L162.031,477.56z"/>
<path style="fill:#E84731;" d="M112.092,376.24c-1.467-1.48-2.317-3.462-2.359-5.505l-1.641-75.245
	c-0.237-10.631,3.649-20.533,10.943-27.884c7.292-7.35,17.119-11.265,27.666-11.031c10.554,0.239,20.564,4.603,28.192,12.294
	c7.627,7.685,11.955,17.773,12.192,28.409l0.075,3.304l3.276,0.071c10.551,0.239,20.562,4.604,28.188,12.291
	c7.627,7.687,11.961,17.779,12.196,28.412c0.233,10.632-3.651,20.534-10.943,27.884c-7.292,7.351-17.119,11.266-27.668,11.032
	l-74.657-1.658C115.521,378.57,113.562,377.718,112.092,376.24z"/>
<path style="opacity:0.1;enable-background:new    ;" d="M44.213,344.109c-4.967-5.005-4.967-13.196,0-18.202l134.969-136.033
	l-7.293-7.352c-4.967-5.005-13.094-5.005-18.061,0L11.563,325.907c-4.967,5.006-4.967,13.197,0,18.202L143.972,477.56
	c4.967,5.005,13.092,5.005,18.059,0l7.296-7.353L44.213,344.109z"/>
<path style="opacity:0.1;enable-background:new    ;" d="M140.742,306.001c-0.237-10.631,3.649-20.533,10.943-27.885
	c5.891-5.938,13.437-9.631,21.682-10.708c-7.415-6.779-16.803-10.609-26.666-10.831c-10.547-0.235-20.374,3.68-27.666,11.031
	c-7.293,7.351-11.179,17.254-10.943,27.884l1.641,75.245c0.043,2.043,0.892,4.025,2.359,5.505c1.469,1.479,3.428,2.33,5.46,2.375
	l24.786,0.551L140.742,306.001z"/>
<path style="fill:#603813;" d="M462.07,59.837c2.482,2.501,2.482,6.596,0,9.101l-27.061,27.272c-2.484,2.504-6.545,2.504-9.029,0
	l-27.061-27.272c-2.482-2.504-2.482-6.599,0-9.101l27.061-27.273c2.484-2.504,6.545-2.504,9.029,0L462.07,59.837z"/>
<path style="fill:#736357;" d="M466.648,257.853c2.484,2.504,2.484,6.598,0,9.101l-17.774,17.914c-2.484,2.504-6.547,2.504-9.029,0
	l-17.776-17.914c-2.484-2.504-2.484-6.598,0-9.101l17.776-17.915c2.482-2.503,6.545-2.503,9.029,0L466.648,257.853z"/>
<path style="fill:#754C24;" d="M502.305,157.364c2.484,2.504,2.484,6.598,0,9.101l-17.774,17.914c-2.484,2.504-6.547,2.504-9.029,0
	l-17.776-17.914c-2.484-2.503-2.484-6.598,0-9.101l17.776-17.915c2.482-2.504,6.545-2.504,9.029,0L502.305,157.364z"/>
<path style="fill:#603813;" d="M466.648,257.853c2.484,2.504,2.484,6.598,0,9.101l-17.774,17.914c-2.484,2.504-6.547,2.504-9.029,0
	l-17.776-17.914c-2.484-2.504-2.484-6.598,0-9.101l17.776-17.915c2.482-2.503,6.545-2.503,9.029,0L466.648,257.853z"/>
<path d="M415.717,215.134c4.975-5.013,6.068-13.416,2.545-19.537c-0.083-0.144-8.242-14.548-8.242-26.708
	c0-8.841,3.948-19.132,3.984-19.226c2.429-6.222,0.783-14.174-3.914-18.909l-89.027-89.727c-2.683-2.704-6.263-4.194-10.079-4.194
	c-3.816,0-7.395,1.49-10.077,4.194l-130.363,131.39c-2.411-0.97-5.005-1.486-7.685-1.486c-5.525,0-10.708,2.156-14.594,6.071
	L6,320.386c-8,8.062-8,21.181,0,29.242L138.41,483.08c3.885,3.914,9.068,6.07,14.592,6.07s10.707-2.156,14.593-6.071l97.494-98.261
	c3.048-3.072,3.029-8.034-0.044-11.083c-3.072-3.048-8.033-3.03-11.082,0.044l-97.493,98.26c-0.921,0.927-2.151,1.437-3.467,1.437
	c-1.317,0-2.547-0.51-3.466-1.437L17.126,338.589c-1.926-1.941-1.926-5.22,0.001-7.163L159.39,188.043
	c0.921-0.927,2.152-1.437,3.468-1.437c1.317,0,2.549,0.51,3.467,1.436l14.846,14.963c3.049,3.073,8.011,3.093,11.082,0.044
	c3.072-3.049,3.092-8.01,0.044-11.082l-9.535-9.61l36.119-36.403l34.108,34.377l-36.118,36.402l-1.765-1.779
	c-3.049-3.072-8.011-3.093-11.083-0.044c-3.072,3.049-3.092,8.01-0.044,11.083l94.753,95.501c1.927,1.941,1.927,5.222,0,7.164
	l-21.962,22.135c-3.048,3.072-3.028,8.034,0.044,11.082c1.529,1.516,3.523,2.274,5.519,2.274c2.016,0,4.031-0.773,5.563-2.318
	l21.962-22.134c5.999-6.047,7.499-14.938,4.499-22.406L415.717,215.134z M351.621,257.482l-34.11-34.378l33.206-33.467
	l34.111,34.378L351.621,257.482z M404.522,204.165l-8.656,8.724l-34.11-34.378l36.818-37.109l0.365,0.368
	c0.352,0.427,0.611,1.696,0.465,2.196c-0.206,0.529-5.057,13.09-5.057,24.926c0,16.001,9.438,32.956,10.28,34.436
	C404.676,203.542,404.622,203.964,404.522,204.165z M387.535,130.274l-36.818,37.109l-31.4-31.647l36.818-37.108L387.535,130.274z
	 M310.985,53.125l34.11,34.376l-36.818,37.108l-34.109-34.376L310.985,53.125z M229.923,134.826l33.206-33.467l34.108,34.377
	l-33.206,33.467L229.923,134.826z M264.032,191.456l2.126,2.144c1.533,1.543,3.547,2.317,5.563,2.317
	c1.995,0,3.992-0.758,5.519-2.274c3.072-3.049,3.092-8.011,0.044-11.083l-2.213-2.231l33.206-33.467l31.399,31.647l-33.206,33.468
	l-5.34-5.383c-3.049-3.072-8.011-3.092-11.082-0.044c-3.073,3.049-3.092,8.01-0.044,11.083l5.427,5.471l-36.118,36.403l-31.4-31.648
	L264.032,191.456z M270.35,270.634l36.119-36.403l34.111,34.378l-36.119,36.403L270.35,270.634z"/>
<path d="M180.457,263.351c-9.063-9.137-20.988-14.326-33.582-14.61c-12.736-0.29-24.611,4.483-33.404,13.346
	c-8.806,8.875-13.499,20.801-13.214,33.576l1.641,75.237c0.086,4.077,1.729,7.934,4.636,10.864c2.911,2.93,6.762,4.593,10.843,4.686
	l74.657,1.658c0.358,0.008,0.714,0.013,1.069,0.013c12.307,0,23.791-4.745,32.336-13.359c8.801-8.871,13.494-20.796,13.214-33.577
	c-0.279-12.646-5.418-24.636-14.468-33.759c-8.081-8.146-18.44-13.152-29.522-14.343
	C193.499,281.929,188.537,271.494,180.457,263.351z M222.985,341.528c0.186,8.489-2.894,16.371-8.672,22.195
	c-5.746,5.792-13.56,8.895-21.929,8.716l-74.635-1.656c-0.011-0.003-0.051-0.021-0.092-0.062c-0.067-0.068-0.087-0.138-0.089-0.157
	l-1.641-75.248c-0.189-8.485,2.891-16.365,8.672-22.191c5.581-5.626,13.112-8.724,21.207-8.724c0.239,0,0.48,0.003,0.717,0.008
	c8.515,0.193,16.614,3.737,22.806,9.979c6.206,6.253,9.729,14.444,9.92,23.067l0.075,3.304c0.096,4.191,3.472,7.564,7.664,7.656
	l3.267,0.071c8.514,0.193,16.612,3.737,22.803,9.976C219.27,324.724,222.796,332.915,222.985,341.528z"/>
<path d="M420.417,101.73c2.683,2.704,6.263,4.194,10.078,4.194c3.814,0,7.394-1.49,10.078-4.194l27.064-27.275
	c5.504-5.553,5.502-14.587-0.003-20.137l-27.061-27.273c-2.683-2.704-6.263-4.194-10.078-4.194c-3.814,0-7.394,1.49-10.078,4.194
	l-27.063,27.274c-5.505,5.549-5.506,14.584,0.001,20.139L420.417,101.73z M430.494,39.141l25.052,25.247l-25.052,25.246
	l-25.051-25.246L430.494,39.141z"/>
<path d="M454.437,234.419c-2.683-2.704-6.263-4.194-10.079-4.194c-3.816,0-7.396,1.491-10.077,4.194l-17.776,17.915
	c-5.509,5.553-5.509,14.588,0.001,20.141l17.772,17.91c2.682,2.707,6.263,4.198,10.079,4.198s7.396-1.49,10.079-4.195l17.774-17.913
	c5.51-5.553,5.51-14.588,0-20.141L454.437,234.419z M444.36,278.291l-15.766-15.888l15.766-15.889l15.763,15.889L444.36,278.291z"/>
<path d="M507.868,151.843l-17.774-17.915c-2.683-2.704-6.263-4.194-10.079-4.194s-7.396,1.491-10.077,4.194l-17.776,17.915
	c-5.509,5.553-5.509,14.588,0.001,20.141l17.772,17.91c2.682,2.707,6.263,4.198,10.079,4.198c3.816,0,7.396-1.49,10.079-4.195
	l17.774-17.913C513.377,166.431,513.377,157.396,507.868,151.843z M480.018,177.801l-15.766-15.888l15.766-15.889l15.763,15.889
	L480.018,177.801z"/>
<g>
</g>
<g>
</g>
<g>
</g>
<g>
</g>
<g>
</g>
<g>
</g>
<g>
</g>
<g>
</g>
<g>
</g>
<g>
</g>
<g>
</g>
<g>
</g>
<g>
</g>
<g>
</g>
<g>
</g>
</svg>
